<?xml version="1.0" standalone="no"?>
<!DOCTYPE svg PUBLIC "-//W3C//DTD SVG 20010904//EN"
 "http://www.w3.org/TR/2001/REC-SVG-20010904/DTD/svg10.dtd">
<svg version="1.0" xmlns="http://www.w3.org/2000/svg"
 width="512.000000pt" height="512.000000pt" viewBox="0 0 512.000000 512.000000"
 preserveAspectRatio="xMidYMid meet">

<g transform="translate(0.000000,512.000000) scale(0.100000,-0.100000)"
fill="#000000" stroke="none">
<path d="M920 5104 c-73 -20 -127 -53 -179 -109 -52 -56 -76 -109 -90 -195
-15 -88 -15 -4540 -1 -4591 43 -156 184 -204 595 -204 330 1 452 29 538 124
20 22 39 56 44 78 4 21 8 440 8 932 l0 893 175 -5 c191 -5 245 -16 337 -68
195 -111 279 -264 653 -1196 258 -641 268 -661 351 -703 76 -39 155 -51 394
-57 248 -6 478 7 562 32 163 48 204 170 133 390 -40 124 -509 1224 -595 1396
-112 222 -264 425 -394 524 l-51 39 101 52 c474 248 719 673 719 1246 0 703
-384 1178 -1100 1360 -275 69 -431 78 -1385 77 -636 0 -769 -3 -815 -15z
m1730 -194 c761 -48 1232 -379 1347 -947 27 -132 24 -453 -4 -583 -50 -228
-135 -391 -288 -545 -139 -142 -280 -230 -495 -310 -105 -39 -127 -55 -136
-101 -10 -53 13 -83 104 -135 204 -117 335 -265 480 -539 62 -118 540 -1232
581 -1356 17 -49 32 -106 33 -124 3 -34 2 -35 -47 -48 -31 -8 -142 -15 -290
-19 -331 -8 -499 11 -518 59 -85 215 -454 1125 -490 1208 -190 439 -344 623
-595 714 -105 38 -204 48 -433 44 -232 -3 -239 -6 -259 -77 -6 -23 -10 -378
-10 -969 l0 -932 -25 -10 c-66 -25 -172 -35 -370 -35 -204 0 -313 11 -370 37
l-25 11 0 2238 c0 1596 3 2253 11 2290 6 29 22 64 38 80 52 59 37 58 851 59
410 0 819 -5 910 -10z"/>
<path d="M1630 4706 l0 -106 228 0 c125 0 296 -5 380 -11 84 -6 155 -10 157
-7 8 7 23 183 16 189 -9 10 -297 27 -558 35 l-223 7 0 -107z"/>
<path d="M1130 4475 l0 -305 101 0 101 0 -4 305 -3 305 -97 0 -98 0 0 -305z"/>
<path d="M2627 4733 c-11 -17 -38 -173 -32 -183 3 -5 15 -10 25 -10 43 0 303
-74 404 -115 61 -24 112 -43 114 -40 3 2 22 43 42 90 l38 85 -46 20 c-184 82
-530 179 -545 153z"/>
<path d="M3345 4360 l-69 -69 76 -79 c85 -89 137 -182 166 -299 10 -40 21 -75
24 -78 8 -9 188 36 188 47 0 5 -9 46 -21 90 -24 96 -63 186 -114 262 -37 56
-161 196 -174 196 -3 0 -38 -31 -76 -70z"/>
<path d="M1678 4340 c-15 -11 -32 -38 -38 -58 -15 -56 -13 -1396 3 -1442 22
-66 45 -70 352 -70 149 0 321 5 384 11 420 39 687 232 783 566 20 67 23 100
22 238 -1 144 -4 169 -28 250 -40 133 -79 199 -171 290 -86 87 -155 129 -278
171 -142 49 -224 57 -627 61 -371 5 -375 5 -402 -17z m782 -195 c129 -17 195
-37 282 -82 159 -83 247 -254 248 -480 0 -247 -101 -421 -304 -517 -50 -24
-120 -51 -156 -60 -102 -25 -277 -37 -495 -34 l-200 3 -3 593 -2 592 262 0
c171 0 300 -5 368 -15z"/>
<path d="M1130 3670 l0 -300 100 0 100 0 0 300 0 300 -100 0 -100 0 0 -300z"/>
<path d="M3517 3565 c-20 -109 -63 -251 -113 -368 -18 -44 -33 -82 -31 -83 7
-6 180 -74 182 -72 9 9 77 187 104 270 34 108 77 306 67 315 -7 8 -132 32
-166 33 -24 0 -26 -5 -43 -95z"/>
<path d="M1130 2870 l0 -300 100 0 100 0 0 300 0 300 -100 0 -100 0 0 -300z"/>
<path d="M3259 2974 c-53 -56 -187 -160 -261 -205 -38 -22 -68 -43 -68 -46 0
-14 92 -163 101 -163 14 0 138 78 204 128 33 25 93 77 133 116 l73 70 -68 68
c-37 37 -70 68 -73 68 -3 0 -22 -16 -41 -36z"/>
<path d="M2650 2645 c-105 -22 -314 -45 -410 -45 l-50 0 0 -62 c0 -35 3 -80 7
-102 l6 -39 116 7 c153 9 275 24 390 47 52 11 96 20 97 22 4 5 -40 197 -45
196 -3 -1 -53 -12 -111 -24z"/>
<path d="M1657 2604 c-4 -4 -7 -49 -7 -100 0 -111 -13 -104 193 -104 l147 0 0
100 0 100 -142 0 c-79 0 -152 3 -163 6 -11 3 -24 2 -28 -2z"/>
<path d="M1140 2070 l0 -300 100 0 100 0 0 300 0 300 -100 0 -100 0 0 -300z"/>
<path d="M2747 2272 c-63 -63 -67 -70 -51 -83 26 -21 181 -205 239 -282 28
-36 54 -67 58 -67 18 0 156 114 149 124 -42 70 -295 368 -316 374 -6 1 -42
-28 -79 -66z"/>
<path d="M3190 1733 c-41 -25 -79 -48 -83 -52 -4 -4 20 -55 54 -112 34 -57 96
-171 137 -254 42 -82 77 -152 78 -153 5 -8 174 78 174 88 0 27 -245 485 -279
522 -3 4 -40 -14 -81 -39z"/>
<path d="M1140 1270 l0 -300 100 0 100 0 0 300 0 300 -100 0 -100 0 0 -300z"/>
<path d="M3550 1019 c-41 -17 -79 -34 -83 -38 -4 -4 26 -93 66 -197 41 -104
87 -226 103 -271 16 -46 34 -83 40 -83 7 0 50 14 97 31 l84 31 -48 131 c-100
270 -164 427 -174 426 -5 0 -44 -14 -85 -30z"/>
<path d="M1140 565 l0 -206 103 3 102 3 -1 28 c0 15 -1 106 -2 202 l-2 175
-100 0 -100 0 0 -205z"/>
</g>
</svg>
